<?xml version="1.0" encoding="UTF-8"?>
<svg version="1.1" xmlns="http://www.w3.org/2000/svg" width="220" height="286">
<path d="M0 0 C72.6 0 145.2 0 220 0 C220 94.38 220 188.76 220 286 C147.4 286 74.8 286 0 286 C0 191.62 0 97.24 0 0 Z " fill="#DC973D" transform="translate(0,0)"/>
<path d="M0 0 C72.6 0 145.2 0 220 0 C220 83.16 220 166.32 220 252 C202.51 252 185.02 252 167 252 C167 251.34 167 250.68 167 250 C165.68 250 164.36 250 163 250 C163 249.34 163 248.68 163 248 C161.68 248 160.36 248 159 248 C159 247.34 159 246.68 159 246 C158.34 246 157.68 246 157 246 C157 245.34 157 244.68 157 244 C156.34 244 155.68 244 155 244 C155 238.06 155 232.12 155 226 C155.66 226 156.32 226 157 226 C157 225.34 157 224.68 157 224 C157.66 224 158.32 224 159 224 C159 223.34 159 222.68 159 222 C159.66 222 160.32 222 161 222 C161 221.34 161 220.68 161 220 C161.66 220 162.32 220 163 220 C163 219.34 163 218.68 163 218 C163.66 218 164.32 218 165 218 C165 217.34 165 216.68 165 216 C165.66 216 166.32 216 167 216 C167 215.34 167 214.68 167 214 C167.66 214 168.32 214 169 214 C169 213.34 169 212.68 169 212 C169.66 212 170.32 212 171 212 C171 211.34 171 210.68 171 210 C171.66 210 172.32 210 173 210 C173 209.34 173 208.68 173 208 C173.66 208 174.32 208 175 208 C175 207.34 175 206.68 175 206 C175.66 206 176.32 206 177 206 C177 205.34 177 204.68 177 204 C177.66 204 178.32 204 179 204 C179 203.34 179 202.68 179 202 C179.66 202 180.32 202 181 202 C181 201.34 181 200.68 181 200 C181.66 200 182.32 200 183 200 C183 199.34 183 198.68 183 198 C183.66 198 184.32 198 185 198 C185 197.34 185 196.68 185 196 C185.66 196 186.32 196 187 196 C187 194.68 187 193.36 187 192 C187.66 192 188.32 192 189 192 C189 191.34 189 190.68 189 190 C189.66 190 190.32 190 191 190 C191 188.68 191 187.36 191 186 C191.66 186 192.32 186 193 186 C193 184.68 193 183.36 193 182 C193.66 182 194.32 182 195 182 C195 180.68 195 179.36 195 178 C195.66 178 196.32 178 197 178 C197 176.02 197 174.04 197 172 C197.66 172 198.32 172 199 172 C199 170.02 199 168.04 199 166 C199.66 166 200.32 166 201 166 C201 162.04 201 158.08 201 154 C201.66 154 202.32 154 203 154 C203 146.08 203 138.16 203 130 C202.34 130 201.68 130 201 130 C201 126.7 201 123.4 201 120 C200.34 120 199.68 120 199 120 C199 118.02 199 116.04 199 114 C198.34 114 197.68 114 197 114 C197 112.02 197 110.04 197 108 C196.34 108 195.68 108 195 108 C195 106.68 195 105.36 195 104 C194.34 104 193.68 104 193 104 C193 102.68 193 101.36 193 100 C192.34 100 191.68 100 191 100 C191 98.68 191 97.36 191 96 C190.34 96 189.68 96 189 96 C189 95.34 189 94.68 189 94 C188.34 94 187.68 94 187 94 C187 92.68 187 91.36 187 90 C186.34 90 185.68 90 185 90 C185 89.34 185 88.68 185 88 C184.34 88 183.68 88 183 88 C183 87.34 183 86.68 183 86 C182.34 86 181.68 86 181 86 C181 85.34 181 84.68 181 84 C180.34 84 179.68 84 179 84 C179 83.34 179 82.68 179 82 C178.34 82 177.68 82 177 82 C177 81.34 177 80.68 177 80 C176.34 80 175.68 80 175 80 C175 79.34 175 78.68 175 78 C174.34 78 173.68 78 173 78 C173 77.34 173 76.68 173 76 C172.34 76 171.68 76 171 76 C171 75.34 171 74.68 171 74 C170.34 74 169.68 74 169 74 C169 73.34 169 72.68 169 72 C168.34 72 167.68 72 167 72 C167 71.34 167 70.68 167 70 C166.34 70 165.68 70 165 70 C165 69.34 165 68.68 165 68 C163.68 68 162.36 68 161 68 C161 67.34 161 66.68 161 66 C159.68 66 158.36 66 157 66 C157 65.34 157 64.68 157 64 C156.34 64 155.68 64 155 64 C155 63.34 155 62.68 155 62 C153.02 62 151.04 62 149 62 C149 61.34 149 60.68 149 60 C147.68 60 146.36 60 145 60 C145 59.34 145 58.68 145 58 C143.02 58 141.04 58 139 58 C139 57.34 139 56.68 139 56 C136.36 56 133.72 56 131 56 C131 55.34 131 54.68 131 54 C118.46 54 105.92 54 93 54 C93 54.66 93 55.32 93 56 C90.36 56 87.72 56 85 56 C85 56.66 85 57.32 85 58 C83.68 58 82.36 58 81 58 C81 58.66 81 59.32 81 60 C79.02 60 77.04 60 75 60 C75 60.66 75 61.32 75 62 C73.68 62 72.36 62 71 62 C71 62.66 71 63.32 71 64 C70.34 64 69.68 64 69 64 C69 64.66 69 65.32 69 66 C67.68 66 66.36 66 65 66 C65 66.66 65 67.32 65 68 C63.68 68 62.36 68 61 68 C61 68.66 61 69.32 61 70 C60.34 70 59.68 70 59 70 C59 70.66 59 71.32 59 72 C58.34 72 57.68 72 57 72 C57 72.66 57 73.32 57 74 C56.34 74 55.68 74 55 74 C55 74.66 55 75.32 55 76 C54.34 76 53.68 76 53 76 C53 76.66 53 77.32 53 78 C52.34 78 51.68 78 51 78 C51 78.66 51 79.32 51 80 C50.34 80 49.68 80 49 80 C49 80.66 49 81.32 49 82 C48.34 82 47.68 82 47 82 C47 82.66 47 83.32 47 84 C46.34 84 45.68 84 45 84 C45 84.66 45 85.32 45 86 C44.34 86 43.68 86 43 86 C43 86.66 43 87.32 43 88 C42.34 88 41.68 88 41 88 C41 88.66 41 89.32 41 90 C40.34 90 39.68 90 39 90 C39 91.32 39 92.64 39 94 C38.34 94 37.68 94 37 94 C37 94.66 37 95.32 37 96 C36.34 96 35.68 96 35 96 C35 97.32 35 98.64 35 100 C34.34 100 33.68 100 33 100 C33 101.32 33 102.64 33 104 C32.34 104 31.68 104 31 104 C31 105.32 31 106.64 31 108 C30.34 108 29.68 108 29 108 C29 109.98 29 111.96 29 114 C28.34 114 27.68 114 27 114 C27 115.98 27 117.96 27 120 C26.34 120 25.68 120 25 120 C25 121.98 25 123.96 25 126 C24.34 126 23.68 126 23 126 C23 137.22 23 148.44 23 160 C23.66 160 24.32 160 25 160 C25 161.98 25 163.96 25 166 C25.66 166 26.32 166 27 166 C27 167.32 27 168.64 27 170 C27.66 170 28.32 170 29 170 C29 172.64 29 175.28 29 178 C29.66 178 30.32 178 31 178 C31 179.32 31 180.64 31 182 C31.66 182 32.32 182 33 182 C33 183.32 33 184.64 33 186 C33.66 186 34.32 186 35 186 C35 187.32 35 188.64 35 190 C35.66 190 36.32 190 37 190 C37 190.66 37 191.32 37 192 C37.66 192 38.32 192 39 192 C39 193.32 39 194.64 39 196 C39.66 196 40.32 196 41 196 C41 196.66 41 197.32 41 198 C41.66 198 42.32 198 43 198 C43 198.66 43 199.32 43 200 C43.66 200 44.32 200 45 200 C45 200.66 45 201.32 45 202 C45.66 202 46.32 202 47 202 C47 202.66 47 203.32 47 204 C47.66 204 48.32 204 49 204 C49 204.66 49 205.32 49 206 C49.66 206 50.32 206 51 206 C51 206.66 51 207.32 51 208 C51.66 208 52.32 208 53 208 C53 208.66 53 209.32 53 210 C53.66 210 54.32 210 55 210 C55 210.66 55 211.32 55 212 C55.66 212 56.32 212 57 212 C57 212.66 57 213.32 57 214 C57.66 214 58.32 214 59 214 C59 214.66 59 215.32 59 216 C59.66 216 60.32 216 61 216 C61 216.66 61 217.32 61 218 C61.66 218 62.32 218 63 218 C63 218.66 63 219.32 63 220 C63.66 220 64.32 220 65 220 C65 220.66 65 221.32 65 222 C65.66 222 66.32 222 67 222 C67 222.66 67 223.32 67 224 C67.66 224 68.32 224 69 224 C69 224.66 69 225.32 69 226 C69.66 226 70.32 226 71 226 C71 226.66 71 227.32 71 228 C71.66 228 72.32 228 73 228 C73 230.64 73 233.28 73 236 C72.34 236 71.68 236 71 236 C71 237.98 71 239.96 71 242 C70.34 242 69.68 242 69 242 C69 243.32 69 244.64 69 246 C67.68 246 66.36 246 65 246 C65 246.66 65 247.32 65 248 C63.68 248 62.36 248 61 248 C61 248.66 61 249.32 61 250 C59.02 250 57.04 250 55 250 C55 250.66 55 251.32 55 252 C36.85 252 18.7 252 0 252 C0 168.84 0 85.68 0 0 Z " fill="#282828" transform="translate(0,0)"/>
<path d="M0 0 C9.24 0 18.48 0 28 0 C28 0.66 28 1.32 28 2 C30.64 2 33.28 2 36 2 C36 2.66 36 3.32 36 4 C37.32 4 38.64 4 40 4 C40 4.66 40 5.32 40 6 C41.32 6 42.64 6 44 6 C44 6.66 44 7.32 44 8 C45.32 8 46.64 8 48 8 C48 8.66 48 9.32 48 10 C48.66 10 49.32 10 50 10 C50 10.66 50 11.32 50 12 C50.66 12 51.32 12 52 12 C52 12.66 52 13.32 52 14 C52.66 14 53.32 14 54 14 C54 14.66 54 15.32 54 16 C54.66 16 55.32 16 56 16 C56 16.66 56 17.32 56 18 C56.66 18 57.32 18 58 18 C58 18.66 58 19.32 58 20 C58.66 20 59.32 20 60 20 C60 20.66 60 21.32 60 22 C60.66 22 61.32 22 62 22 C62 22.66 62 23.32 62 24 C62.66 24 63.32 24 64 24 C64 24.66 64 25.32 64 26 C64.66 26 65.32 26 66 26 C66 27.32 66 28.64 66 30 C66.66 30 67.32 30 68 30 C68 31.32 68 32.64 68 34 C68.66 34 69.32 34 70 34 C70 35.32 70 36.64 70 38 C70.66 38 71.32 38 72 38 C72 39.98 72 41.96 72 44 C72.66 44 73.32 44 74 44 C74 47.3 74 50.6 74 54 C74.66 54 75.32 54 76 54 C76 57.96 76 61.92 76 66 C75.34 66 74.68 66 74 66 C74 69.3 74 72.6 74 76 C73.34 76 72.68 76 72 76 C72 78.64 72 81.28 72 84 C71.34 84 70.68 84 70 84 C70 85.32 70 86.64 70 88 C69.34 88 68.68 88 68 88 C68 89.32 68 90.64 68 92 C67.34 92 66.68 92 66 92 C66 93.32 66 94.64 66 96 C65.34 96 64.68 96 64 96 C64 96.66 64 97.32 64 98 C63.34 98 62.68 98 62 98 C62 98.66 62 99.32 62 100 C61.34 100 60.68 100 60 100 C60 100.66 60 101.32 60 102 C59.34 102 58.68 102 58 102 C58 102.66 58 103.32 58 104 C57.34 104 56.68 104 56 104 C56 104.66 56 105.32 56 106 C55.34 106 54.68 106 54 106 C54 106.66 54 107.32 54 108 C53.34 108 52.68 108 52 108 C52 108.66 52 109.32 52 110 C51.34 110 50.68 110 50 110 C50 110.66 50 111.32 50 112 C49.34 112 48.68 112 48 112 C48 112.66 48 113.32 48 114 C46.68 114 45.36 114 44 114 C44 114.66 44 115.32 44 116 C43.34 116 42.68 116 42 116 C42 116.66 42 117.32 42 118 C41.34 118 40.68 118 40 118 C40 118.66 40 119.32 40 120 C39.34 120 38.68 120 38 120 C38 120.66 38 121.32 38 122 C37.34 122 36.68 122 36 122 C36 122.66 36 123.32 36 124 C35.34 124 34.68 124 34 124 C34 125.32 34 126.64 34 128 C33.34 128 32.68 128 32 128 C32 128.66 32 129.32 32 130 C31.34 130 30.68 130 30 130 C30 131.32 30 132.64 30 134 C29.34 134 28.68 134 28 134 C28 136.64 28 139.28 28 142 C27.34 142 26.68 142 26 142 C26 147.28 26 152.56 26 158 C26.66 158 27.32 158 28 158 C28 159.98 28 161.96 28 164 C28.66 164 29.32 164 30 164 C30 165.32 30 166.64 30 168 C30.66 168 31.32 168 32 168 C32 169.98 32 171.96 32 174 C32.66 174 33.32 174 34 174 C34 174.66 34 175.32 34 176 C34.66 176 35.32 176 36 176 C36 176.66 36 177.32 36 178 C36.66 178 37.32 178 38 178 C38 179.32 38 180.64 38 182 C39.32 182 40.64 182 42 182 C42 182.66 42 183.32 42 184 C42.66 184 43.32 184 44 184 C44 184.66 44 185.32 44 186 C44.66 186 45.32 186 46 186 C46 186.66 46 187.32 46 188 C47.32 188 48.64 188 50 188 C50 188.66 50 189.32 50 190 C51.32 190 52.64 190 54 190 C54 190.66 54 191.32 54 192 C57.3 192 60.6 192 64 192 C64 192.66 64 193.32 64 194 C82.81 194 101.62 194 121 194 C121 197.3 121 200.6 121 204 C48.4 204 -24.2 204 -99 204 C-99 200.7 -99 197.4 -99 194 C-78.87 194 -58.74 194 -38 194 C-38 193.34 -38 192.68 -38 192 C-34.7 192 -31.4 192 -28 192 C-28 191.34 -28 190.68 -28 190 C-26.68 190 -25.36 190 -24 190 C-24 189.34 -24 188.68 -24 188 C-22.68 188 -21.36 188 -20 188 C-20 187.34 -20 186.68 -20 186 C-19.34 186 -18.68 186 -18 186 C-18 185.34 -18 184.68 -18 184 C-17.34 184 -16.68 184 -16 184 C-16 183.34 -16 182.68 -16 182 C-14.68 182 -13.36 182 -12 182 C-12 181.34 -12 180.68 -12 180 C-11.34 180 -10.68 180 -10 180 C-10 179.34 -10 178.68 -10 178 C-9.34 178 -8.68 178 -8 178 C-8 177.34 -8 176.68 -8 176 C-7.34 176 -6.68 176 -6 176 C-6 174.68 -6 173.36 -6 172 C-5.34 172 -4.68 172 -4 172 C-4 170.68 -4 169.36 -4 168 C-3.34 168 -2.68 168 -2 168 C-2 166.02 -2 164.04 -2 162 C-1.34 162 -0.68 162 0 162 C0 154.08 0 146.16 0 138 C-0.66 138 -1.32 138 -2 138 C-2 136.68 -2 135.36 -2 134 C-2.66 134 -3.32 134 -4 134 C-4 132.68 -4 131.36 -4 130 C-4.66 130 -5.32 130 -6 130 C-6 128.68 -6 127.36 -6 126 C-6.66 126 -7.32 126 -8 126 C-8 125.34 -8 124.68 -8 124 C-8.66 124 -9.32 124 -10 124 C-10 123.34 -10 122.68 -10 122 C-10.66 122 -11.32 122 -12 122 C-12 121.34 -12 120.68 -12 120 C-12.66 120 -13.32 120 -14 120 C-14 119.34 -14 118.68 -14 118 C-14.66 118 -15.32 118 -16 118 C-16 117.34 -16 116.68 -16 116 C-16.66 116 -17.32 116 -18 116 C-18 115.34 -18 114.68 -18 114 C-18.66 114 -19.32 114 -20 114 C-20 113.34 -20 112.68 -20 112 C-20.66 112 -21.32 112 -22 112 C-22 111.34 -22 110.68 -22 110 C-22.66 110 -23.32 110 -24 110 C-24 109.34 -24 108.68 -24 108 C-24.66 108 -25.32 108 -26 108 C-26 107.34 -26 106.68 -26 106 C-26.66 106 -27.32 106 -28 106 C-28 105.34 -28 104.68 -28 104 C-28.66 104 -29.32 104 -30 104 C-30 103.34 -30 102.68 -30 102 C-30.66 102 -31.32 102 -32 102 C-32 101.34 -32 100.68 -32 100 C-32.66 100 -33.32 100 -34 100 C-34 99.34 -34 98.68 -34 98 C-34.66 98 -35.32 98 -36 98 C-36 97.34 -36 96.68 -36 96 C-36.66 96 -37.32 96 -38 96 C-38 94.68 -38 93.36 -38 92 C-38.66 92 -39.32 92 -40 92 C-40 90.68 -40 89.36 -40 88 C-40.66 88 -41.32 88 -42 88 C-42 86.68 -42 85.36 -42 84 C-42.66 84 -43.32 84 -44 84 C-44 82.02 -44 80.04 -44 78 C-44.66 78 -45.32 78 -46 78 C-46 76.02 -46 74.04 -46 72 C-46.66 72 -47.32 72 -48 72 C-48 64.74 -48 57.48 -48 50 C-47.34 50 -46.68 50 -46 50 C-46 48.02 -46 46.04 -46 44 C-45.34 44 -44.68 44 -44 44 C-44 42.02 -44 40.04 -44 38 C-43.34 38 -42.68 38 -42 38 C-42 36.68 -42 35.36 -42 34 C-41.34 34 -40.68 34 -40 34 C-40 32.02 -40 30.04 -40 28 C-39.34 28 -38.68 28 -38 28 C-38 27.34 -38 26.68 -38 26 C-37.34 26 -36.68 26 -36 26 C-36 25.34 -36 24.68 -36 24 C-35.34 24 -34.68 24 -34 24 C-34 23.34 -34 22.68 -34 22 C-33.34 22 -32.68 22 -32 22 C-32 21.34 -32 20.68 -32 20 C-31.34 20 -30.68 20 -30 20 C-30 19.34 -30 18.68 -30 18 C-29.34 18 -28.68 18 -28 18 C-28 17.34 -28 16.68 -28 16 C-27.34 16 -26.68 16 -26 16 C-26 15.34 -26 14.68 -26 14 C-25.34 14 -24.68 14 -24 14 C-24 13.34 -24 12.68 -24 12 C-23.34 12 -22.68 12 -22 12 C-22 11.34 -22 10.68 -22 10 C-21.34 10 -20.68 10 -20 10 C-20 9.34 -20 8.68 -20 8 C-18.68 8 -17.36 8 -16 8 C-16 7.34 -16 6.68 -16 6 C-14.68 6 -13.36 6 -12 6 C-12 5.34 -12 4.68 -12 4 C-10.02 4 -8.04 4 -6 4 C-6 3.34 -6 2.68 -6 2 C-4.02 2 -2.04 2 0 2 C0 1.34 0 0.68 0 0 Z " fill="#292928" transform="translate(99,82)"/>
<path d="M0 0 C1.98 0 3.96 0 6 0 C6 0.66 6 1.32 6 2 C6.66 2 7.32 2 8 2 C8 3.32 8 4.64 8 6 C8.66 6 9.32 6 10 6 C10 7.98 10 9.96 10 12 C9.34 12 8.68 12 8 12 C8 12.66 8 13.32 8 14 C7.34 14 6.68 14 6 14 C6 14.66 6 15.32 6 16 C5.34 16 4.68 16 4 16 C4 17.32 4 18.64 4 20 C3.34 20 2.68 20 2 20 C2 20.66 2 21.32 2 22 C1.34 22 0.68 22 0 22 C0 23.32 0 24.64 0 26 C-0.66 26 -1.32 26 -2 26 C-2 31.94 -2 37.88 -2 44 C-1.34 44 -0.68 44 0 44 C0 45.32 0 46.64 0 48 C0.66 48 1.32 48 2 48 C2 48.66 2 49.32 2 50 C2.66 50 3.32 50 4 50 C4 50.66 4 51.32 4 52 C4.66 52 5.32 52 6 52 C6 52.66 6 53.32 6 54 C7.32 54 8.64 54 10 54 C10 54.66 10 55.32 10 56 C15.94 56 21.88 56 28 56 C28 55.34 28 54.68 28 54 C29.32 54 30.64 54 32 54 C32 53.34 32 52.68 32 52 C33.32 52 34.64 52 36 52 C36 51.34 36 50.68 36 50 C36.66 50 37.32 50 38 50 C38 49.34 38 48.68 38 48 C38.66 48 39.32 48 40 48 C40 46.68 40 45.36 40 44 C40.66 44 41.32 44 42 44 C42 39.38 42 34.76 42 30 C41.34 30 40.68 30 40 30 C40 28.02 40 26.04 40 24 C39.34 24 38.68 24 38 24 C38 22.68 38 21.36 38 20 C37.34 20 36.68 20 36 20 C36 19.34 36 18.68 36 18 C35.34 18 34.68 18 34 18 C34 17.34 34 16.68 34 16 C33.34 16 32.68 16 32 16 C32 15.34 32 14.68 32 14 C31.34 14 30.68 14 30 14 C30 12.68 30 11.36 30 10 C29.34 10 28.68 10 28 10 C28 9.34 28 8.68 28 8 C28.66 8 29.32 8 30 8 C30 6.68 30 5.36 30 4 C30.66 4 31.32 4 32 4 C32 3.34 32 2.68 32 2 C35.3 2 38.6 2 42 2 C42 2.66 42 3.32 42 4 C43.98 4 45.96 4 48 4 C48 5.32 48 6.64 48 8 C48.66 8 49.32 8 50 8 C50 9.32 50 10.64 50 12 C50.66 12 51.32 12 52 12 C52 12.66 52 13.32 52 14 C52.66 14 53.32 14 54 14 C54 14.66 54 15.32 54 16 C54.66 16 55.32 16 56 16 C56 17.98 56 19.96 56 22 C56.66 22 57.32 22 58 22 C58 24.64 58 27.28 58 30 C58.66 30 59.32 30 60 30 C60 33.96 60 37.92 60 42 C59.34 42 58.68 42 58 42 C58 43.98 58 45.96 58 48 C57.34 48 56.68 48 56 48 C56 49.98 56 51.96 56 54 C55.34 54 54.68 54 54 54 C54 54.66 54 55.32 54 56 C53.34 56 52.68 56 52 56 C52 56.66 52 57.32 52 58 C51.34 58 50.68 58 50 58 C50 59.32 50 60.64 50 62 C48.68 62 47.36 62 46 62 C46 62.66 46 63.32 46 64 C45.34 64 44.68 64 44 64 C44 64.66 44 65.32 44 66 C43.34 66 42.68 66 42 66 C42 66.66 42 67.32 42 68 C41.34 68 40.68 68 40 68 C40 68.66 40 69.32 40 70 C38.68 70 37.36 70 36 70 C36 70.66 36 71.32 36 72 C34.02 72 32.04 72 30 72 C30 72.66 30 73.32 30 74 C22.08 74 14.16 74 6 74 C6 73.34 6 72.68 6 72 C4.68 72 3.36 72 2 72 C2 71.34 2 70.68 2 70 C0.68 70 -0.64 70 -2 70 C-2 69.34 -2 68.68 -2 68 C-2.66 68 -3.32 68 -4 68 C-4 67.34 -4 66.68 -4 66 C-4.66 66 -5.32 66 -6 66 C-6 65.34 -6 64.68 -6 64 C-6.66 64 -7.32 64 -8 64 C-8 63.34 -8 62.68 -8 62 C-8.66 62 -9.32 62 -10 62 C-10 61.34 -10 60.68 -10 60 C-10.66 60 -11.32 60 -12 60 C-12 59.34 -12 58.68 -12 58 C-12.66 58 -13.32 58 -14 58 C-14 57.34 -14 56.68 -14 56 C-14.66 56 -15.32 56 -16 56 C-16 54.68 -16 53.36 -16 52 C-16.66 52 -17.32 52 -18 52 C-18 49.36 -18 46.72 -18 44 C-18.66 44 -19.32 44 -20 44 C-20 37.4 -20 30.8 -20 24 C-19.34 24 -18.68 24 -18 24 C-18 22.02 -18 20.04 -18 18 C-17.34 18 -16.68 18 -16 18 C-16 17.34 -16 16.68 -16 16 C-15.34 16 -14.68 16 -14 16 C-14 14.68 -14 13.36 -14 12 C-13.34 12 -12.68 12 -12 12 C-12 11.34 -12 10.68 -12 10 C-11.34 10 -10.68 10 -10 10 C-10 9.34 -10 8.68 -10 8 C-9.34 8 -8.68 8 -8 8 C-8 7.34 -8 6.68 -8 6 C-7.34 6 -6.68 6 -6 6 C-6 5.34 -6 4.68 -6 4 C-5.34 4 -4.68 4 -4 4 C-4 3.34 -4 2.68 -4 2 C-2.68 2 -1.36 2 0 2 C0 1.34 0 0.68 0 0 Z " fill="#DA973F" transform="translate(93,106)"/>
<path d="M0 0 C3.3 0 6.6 0 10 0 C10 0.66 10 1.32 10 2 C9.34 2 8.68 2 8 2 C8 2.66 8 3.32 8 4 C6.68 4 5.36 4 4 4 C4 4.66 4 5.32 4 6 C2.68 6 1.36 6 0 6 C0 6.66 0 7.32 0 8 C-3.3 8 -6.6 8 -10 8 C-10 8.66 -10 9.32 -10 10 C-30.13 10 -50.26 10 -71 10 C-71 8.68 -71 7.36 -71 6 C-50.87 6 -30.74 6 -10 6 C-10 5.34 -10 4.68 -10 4 C-9.34 4 -8.68 4 -8 4 C-8 3.34 -8 2.68 -8 2 C-5.36 2 -2.72 2 0 2 C0 1.34 0 0.68 0 0 Z " fill="#B28B50" transform="translate(71,266)"/>
<path d="M0 0 C0.66 0 1.32 0 2 0 C2 1.32 2 2.64 2 4 C2.66 4 3.32 4 4 4 C4 5.98 4 7.96 4 10 C4.66 10 5.32 10 6 10 C6 11.98 6 13.96 6 16 C6.66 16 7.32 16 8 16 C8 19.3 8 22.6 8 26 C8.66 26 9.32 26 10 26 C10 33.92 10 41.84 10 50 C9.34 50 8.68 50 8 50 C8 53.96 8 57.92 8 62 C7.34 62 6.68 62 6 62 C6 63.98 6 65.96 6 68 C5.34 68 4.68 68 4 68 C4 69.98 4 71.96 4 74 C3.34 74 2.68 74 2 74 C2 75.32 2 76.64 2 78 C1.34 78 0.68 78 0 78 C0 79.32 0 80.64 0 82 C-0.66 82 -1.32 82 -2 82 C-2 83.32 -2 84.64 -2 86 C-2.66 86 -3.32 86 -4 86 C-4 86.66 -4 87.32 -4 88 C-4.66 88 -5.32 88 -6 88 C-6 89.32 -6 90.64 -6 92 C-6.66 92 -7.32 92 -8 92 C-8 89.36 -8 86.72 -8 84 C-7.34 84 -6.68 84 -6 84 C-6 82.68 -6 81.36 -6 80 C-4.68 80 -3.36 80 -2 80 C-2 78.02 -2 76.04 -2 74 C-1.34 74 -0.68 74 0 74 C0 72.68 0 71.36 0 70 C0.66 70 1.32 70 2 70 C2 68.02 2 66.04 2 64 C2.66 64 3.32 64 4 64 C4 61.36 4 58.72 4 56 C4.66 56 5.32 56 6 56 C5.88177165 50.7854073 5.75752459 45.571006 5.62768555 40.35668945 C5.58436066 38.58264063 5.54268381 36.80855077 5.50268555 35.03442383 C5.4449238 32.48506295 5.38124638 29.9359082 5.31640625 27.38671875 C5.29969376 26.59287277 5.28298126 25.79902679 5.26576233 24.98112488 C5.17882282 21.75316923 5.02749634 19.08248901 4 16 C3.34 16 2.68 16 2 16 C2 13.36 2 10.72 2 8 C1.34 8 0.68 8 0 8 C0 5.36 0 2.72 0 0 Z " fill="#BA9051" transform="translate(193,104)"/>
<path d="M0 0 C12.54 0 25.08 0 38 0 C38 0.66 38 1.32 38 2 C40.64 2 43.28 2 46 2 C46 2.66 46 3.32 46 4 C47.98 4 49.96 4 52 4 C52 4.66 52 5.32 52 6 C53.32 6 54.64 6 56 6 C56 6.66 56 7.32 56 8 C52.7 8 49.4 8 46 8 C46 7.34 46 6.68 46 6 C44.02 6 42.04 6 40 6 C40 5.34 40 4.68 40 4 C25.48 4 10.96 4 -4 4 C-4 4.66 -4 5.32 -4 6 C-5.32 6 -6.64 6 -8 6 C-8 6.66 -8 7.32 -8 8 C-11.3 8 -14.6 8 -18 8 C-18 7.34 -18 6.68 -18 6 C-16.02 6 -14.04 6 -12 6 C-12 5.34 -12 4.68 -12 4 C-10.68 4 -9.36 4 -8 4 C-8 3.34 -8 2.68 -8 2 C-5.36 2 -2.72 2 0 2 C0 1.34 0 0.68 0 0 Z " fill="#BC9150" transform="translate(93,54)"/>
<path d="M0 0 C22.11 0 44.22 0 67 0 C67 1.32 67 2.64 67 4 C48.19 4 29.38 4 10 4 C10 3.34 10 2.68 10 2 C6.7 2 3.4 2 0 2 C0 1.34 0 0.68 0 0 Z " fill="#AE8951" transform="translate(153,272)"/>
<path d="M0 0 C0.66 0 1.32 0 2 0 C2 2.64 2 5.28 2 8 C1.34 8 0.68 8 0 8 C0 21.2 0 34.4 0 48 C0.66 48 1.32 48 2 48 C2 50.64 2 53.28 2 56 C1.34 56 0.68 56 0 56 C0 54.68 0 53.36 0 52 C-0.66 52 -1.32 52 -2 52 C-2 50.02 -2 48.04 -2 46 C-2.66 46 -3.32 46 -4 46 C-4 34.78 -4 23.56 -4 12 C-3.34 12 -2.68 12 -2 12 C-2 10.02 -2 8.04 -2 6 C-1.34 6 -0.68 6 0 6 C0 4.02 0 2.04 0 0 Z " fill="#B98F53" transform="translate(27,114)"/>
<path d="M0 0 C1.32 0 2.64 0 4 0 C4 0.66 4 1.32 4 2 C3.34 2 2.68 2 2 2 C2 2.66 2 3.32 2 4 C0.68 4 -0.64 4 -2 4 C-2 5.32 -2 6.64 -2 8 C-22.79 8 -43.58 8 -65 8 C-65 7.34 -65 6.68 -65 6 C-46.85 6 -28.7 6 -10 6 C-10 5.34 -10 4.68 -10 4 C-8.02 4 -6.04 4 -4 4 C-4 3.34 -4 2.68 -4 2 C-2.68 2 -1.36 2 0 2 C0 1.34 0 0.68 0 0 Z " fill="#C7954B" transform="translate(65,246)"/>
<path d="M0 0 C0.66 0 1.32 0 2 0 C2 1.32 2 2.64 2 4 C2.66 4 3.32 4 4 4 C4 11.92 4 19.84 4 28 C3.34 28 2.68 28 2 28 C2 29.98 2 31.96 2 34 C1.34 34 0.68 34 0 34 C0 35.32 0 36.64 0 38 C-0.66 38 -1.32 38 -2 38 C-2 39.32 -2 40.64 -2 42 C-2.66 42 -3.32 42 -4 42 C-4 38.7 -4 35.4 -4 32 C-2.68 32 -1.36 32 0 32 C0 21.44 0 10.88 0 0 Z " fill="#BE9050" transform="translate(95,216)"/>
<path d="M0 0 C1.32 0 2.64 0 4 0 C4 0.66 4 1.32 4 2 C3.34 2 2.68 2 2 2 C2 2.66 2 3.32 2 4 C0.68 4 -0.64 4 -2 4 C-2 4.66 -2 5.32 -2 6 C-2.66 6 -3.32 6 -4 6 C-4 6.66 -4 7.32 -4 8 C-9.94 8 -15.88 8 -22 8 C-22 6.68 -22 5.36 -22 4 C-16.06 4 -10.12 4 -4 4 C-4 3.34 -4 2.68 -4 2 C-2.68 2 -1.36 2 0 2 C0 1.34 0 0.68 0 0 Z " fill="#BB8F53" transform="translate(125,158)"/>
<path d="M0 0 C0.66 0 1.32 0 2 0 C2 2.64 2 5.28 2 8 C2.66 8 3.32 8 4 8 C4 11.96 4 15.92 4 20 C3.34 20 2.68 20 2 20 C2 21.98 2 23.96 2 26 C1.34 26 0.68 26 0 26 C0 27.98 0 29.96 0 32 C-0.66 32 -1.32 32 -2 32 C-2 28.7 -2 25.4 -2 22 C-1.34 22 -0.68 22 0 22 C0 14.74 0 7.48 0 0 Z " fill="#AB8755" transform="translate(149,128)"/>
<path d="M0 0 C3.3 0 6.6 0 10 0 C10 0.66 10 1.32 10 2 C9.34 2 8.68 2 8 2 C8 2.66 8 3.32 8 4 C6.68 4 5.36 4 4 4 C4 4.66 4 5.32 4 6 C2.68 6 1.36 6 0 6 C0 6.66 0 7.32 0 8 C-2.64 8 -5.28 8 -8 8 C-8 6.02 -8 4.04 -8 2 C-5.36 2 -2.72 2 0 2 C0 1.34 0 0.68 0 0 Z " fill="#D3993E" transform="translate(71,266)"/>
<path d="M0 0 C0.66 0 1.32 0 2 0 C2 9.9 2 19.8 2 30 C1.34 30 0.68 30 0 30 C0 28.02 0 26.04 0 24 C-0.66 24 -1.32 24 -2 24 C-2 18.72 -2 13.44 -2 8 C-1.34 8 -0.68 8 0 8 C0 5.36 0 2.72 0 0 Z " fill="#9B7D51" transform="translate(127,216)"/>
<path d="M0 0 C1.98 0 3.96 0 6 0 C6 0.66 6 1.32 6 2 C5.34 2 4.68 2 4 2 C4 2.66 4 3.32 4 4 C3.34 4 2.68 4 2 4 C2 5.98 2 7.96 2 10 C1.34 10 0.68 10 0 10 C0 11.32 0 12.64 0 14 C-0.66 14 -1.32 14 -2 14 C-2 15.98 -2 17.96 -2 20 C-2.66 20 -3.32 20 -4 20 C-4 21.98 -4 23.96 -4 26 C-4.66 26 -5.32 26 -6 26 C-6 22.04 -6 18.08 -6 14 C-5.34 14 -4.68 14 -4 14 C-4 13.34 -4 12.68 -4 12 C-3.34 12 -2.68 12 -2 12 C-2 10.02 -2 8.04 -2 6 C-1.34 6 -0.68 6 0 6 C0 4.02 0 2.04 0 0 Z " fill="#C19450" transform="translate(57,106)"/>
<path d="M0 0 C0.66 0 1.32 0 2 0 C2 0.66 2 1.32 2 2 C2.66 2 3.32 2 4 2 C4 2.66 4 3.32 4 4 C4.66 4 5.32 4 6 4 C6 4.66 6 5.32 6 6 C6.66 6 7.32 6 8 6 C8 6.66 8 7.32 8 8 C8.66 8 9.32 8 10 8 C10 9.32 10 10.64 10 12 C10.66 12 11.32 12 12 12 C12 12.66 12 13.32 12 14 C12.66 14 13.32 14 14 14 C14 15.32 14 16.64 14 18 C14.66 18 15.32 18 16 18 C16 19.32 16 20.64 16 22 C15.34 22 14.68 22 14 22 C14 21.34 14 20.68 14 20 C13.34 20 12.68 20 12 20 C12 18.68 12 17.36 12 16 C11.34 16 10.68 16 10 16 C10 15.34 10 14.68 10 14 C8.68 14 7.36 14 6 14 C6 12.02 6 10.04 6 8 C4.68 8 3.36 8 2 8 C2 6.68 2 5.36 2 4 C1.34 4 0.68 4 0 4 C0 2.68 0 1.36 0 0 Z " fill="#B79052" transform="translate(177,82)"/>
<path d="M0 0 C3.3 0 6.6 0 10 0 C10 0.66 10 1.32 10 2 C7.36 2 4.72 2 2 2 C2 5.3 2 8.6 2 12 C3.32 12 4.64 12 6 12 C6 12.66 6 13.32 6 14 C5.34 14 4.68 14 4 14 C4 14.66 4 15.32 4 16 C3.34 16 2.68 16 2 16 C2 15.34 2 14.68 2 14 C1.34 14 0.68 14 0 14 C0 13.34 0 12.68 0 12 C-0.66 12 -1.32 12 -2 12 C-2 10.68 -2 9.36 -2 8 C-2.66 8 -3.32 8 -4 8 C-4 7.34 -4 6.68 -4 6 C-3.34 6 -2.68 6 -2 6 C-2 4.68 -2 3.36 -2 2 C-1.34 2 -0.68 2 0 2 C0 1.34 0 0.68 0 0 Z " fill="#B28E55" transform="translate(125,108)"/>
<path d="M0 0 C1.98 0 3.96 0 6 0 C6 0.66 6 1.32 6 2 C6.66 2 7.32 2 8 2 C8 3.32 8 4.64 8 6 C8.66 6 9.32 6 10 6 C10 7.98 10 9.96 10 12 C9.34 12 8.68 12 8 12 C8 12.66 8 13.32 8 14 C7.34 14 6.68 14 6 14 C6 10.7 6 7.4 6 4 C3.36 4 0.72 4 -2 4 C-2 4.66 -2 5.32 -2 6 C-3.32 6 -4.64 6 -6 6 C-6 5.34 -6 4.68 -6 4 C-5.34 4 -4.68 4 -4 4 C-4 3.34 -4 2.68 -4 2 C-2.68 2 -1.36 2 0 2 C0 1.34 0 0.68 0 0 Z " fill="#B3925C" transform="translate(93,106)"/>
<path d="M0 0 C0.66 0 1.32 0 2 0 C2.21278058 4.46839215 1.59138085 7.82262526 0 12 C-0.66 12 -1.32 12 -2 12 C-2 17.28 -2 22.56 -2 28 C-2.66 28 -3.32 28 -4 28 C-4 21.4 -4 14.8 -4 8 C-3.34 8 -2.68 8 -2 8 C-2 6.02 -2 4.04 -2 2 C-1.34 2 -0.68 2 0 2 C0 1.34 0 0.68 0 0 Z " fill="#AB8C5B" transform="translate(77,122)"/>
<path d="M0 0 C0.66 0 1.32 0 2 0 C2 1.32 2 2.64 2 4 C2.66 4 3.32 4 4 4 C4 5.98 4 7.96 4 10 C4.66 10 5.32 10 6 10 C6 11.98 6 13.96 6 16 C6.66 16 7.32 16 8 16 C8 18.64 8 21.28 8 24 C7.34 24 6.68 24 6 24 C5.855625 23.236875 5.71125 22.47375 5.5625 21.6875 C5.0367406 18.91827092 5.0367406 18.91827092 4 16 C3.34 16 2.68 16 2 16 C2 13.36 2 10.72 2 8 C1.34 8 0.68 8 0 8 C0 5.36 0 2.72 0 0 Z " fill="#AE8A52" transform="translate(193,104)"/>
<path d="M0 0 C1.32 0 2.64 0 4 0 C4 0.66 4 1.32 4 2 C5.32 2 6.64 2 8 2 C8 6.62 8 11.24 8 16 C7.34 16 6.68 16 6 16 C6 17.98 6 19.96 6 22 C5.34 22 4.68 22 4 22 C4 22.66 4 23.32 4 24 C3.34 24 2.68 24 2 24 C2 22.68 2 21.36 2 20 C2.66 20 3.32 20 4 20 C4 18.02 4 16.04 4 14 C4.66 14 5.32 14 6 14 C6 11.36 6 8.72 6 6 C5.34 6 4.68 6 4 6 C4 5.34 4 4.68 4 4 C3.34 4 2.68 4 2 4 C2 3.34 2 2.68 2 2 C1.34 2 0.68 2 0 2 C0 1.34 0 0.68 0 0 Z " fill="#C8964B" transform="translate(67,222)"/>
<path d="M0 0 C9.9 0 19.8 0 30 0 C30 0.66 30 1.32 30 2 C21.42 2 12.84 2 4 2 C4 2.66 4 3.32 4 4 C2.68 4 1.36 4 0 4 C0 2.68 0 1.36 0 0 Z " fill="#AB8C5C" transform="translate(95,80)"/>
<path d="M0 0 C0.66 0 1.32 0 2 0 C2 4.62 2 9.24 2 14 C2.66 14 3.32 14 4 14 C4 15.32 4 16.64 4 18 C4.66 18 5.32 18 6 18 C6 18.66 6 19.32 6 20 C6.66 20 7.32 20 8 20 C8 20.66 8 21.32 8 22 C6.68 22 5.36 22 4 22 C4 21.34 4 20.68 4 20 C3.34 20 2.68 20 2 20 C2 18.68 2 17.36 2 16 C1.34 16 0.68 16 0 16 C0 10.72 0 5.44 0 0 Z " fill="#A98B5B" transform="translate(89,136)"/>
<path d="M0 0 C1.32 0 2.64 0 4 0 C4 1.98 4 3.96 4 6 C4.66 6 5.32 6 6 6 C6 10.62 6 15.24 6 20 C5.34 20 4.68 20 4 20 C4 16.7 4 13.4 4 10 C3.34 10 2.68 10 2 10 C2 8.02 2 6.04 2 4 C1.34 4 0.68 4 0 4 C0 2.68 0 1.36 0 0 Z " fill="#B58F52" transform="translate(169,116)"/>
<path d="M0 0 C1.32 0 2.64 0 4 0 C4 1.32 4 2.64 4 4 C3.34 4 2.68 4 2 4 C2 5.32 2 6.64 2 8 C1.34 8 0.68 8 0 8 C0 11.3 0 14.6 0 18 C-0.66 18 -1.32 18 -2 18 C-2.05397335 15.5622037 -2.09365616 13.12560315 -2.125 10.6875 C-2.14175781 9.99720703 -2.15851563 9.30691406 -2.17578125 8.59570312 C-2.21217794 4.82864604 -2.14378864 3.21568296 0 0 Z " fill="#CB974C" transform="translate(89,128)"/>
<path d="M0 0 C1.32 0 2.64 0 4 0 C4 0.66 4 1.32 4 2 C6.64 2 9.28 2 12 2 C12 3.98 12 5.96 12 8 C10.68 8 9.36 8 8 8 C8 7.34 8 6.68 8 6 C6.68 6 5.36 6 4 6 C4 5.34 4 4.68 4 4 C3.34 4 2.68 4 2 4 C2 3.34 2 2.68 2 2 C1.34 2 0.68 2 0 2 C0 1.34 0 0.68 0 0 Z " fill="#C5924A" transform="translate(141,264)"/>
<path d="M0 0 C2.64 0 5.28 0 8 0 C8 0.66 8 1.32 8 2 C6.68 2 5.36 2 4 2 C4 2.66 4 3.32 4 4 C2.68 4 1.36 4 0 4 C0 4.66 0 5.32 0 6 C-3.3 6 -6.6 6 -10 6 C-10 5.34 -10 4.68 -10 4 C-8.02 4 -6.04 4 -4 4 C-4 3.34 -4 2.68 -4 2 C-2.68 2 -1.36 2 0 2 C0 1.34 0 0.68 0 0 Z " fill="#AE8954" transform="translate(85,56)"/>
<path d="M0 0 C1.32 0 2.64 0 4 0 C4 3.96 4 7.92 4 12 C2.68 12.33 1.36 12.66 0 13 C0 8.71 0 4.42 0 0 Z " fill="#A18150" transform="translate(151,228)"/>
<path d="M0 0 C1.32 0 2.64 0 4 0 C4 1.32 4 2.64 4 4 C5.32 4 6.64 4 8 4 C8 6.64 8 9.28 8 12 C7.34 12 6.68 12 6 12 C6 11.34 6 10.68 6 10 C5.34 10 4.68 10 4 10 C4 9.34 4 8.68 4 8 C3.34 8 2.68 8 2 8 C2 6.02 2 4.04 2 2 C1.34 2 0.68 2 0 2 C0 1.34 0 0.68 0 0 Z " fill="#BF944C" transform="translate(129,248)"/>
<path d="M0 0 C0.66 0 1.32 0 2 0 C2 5.28 2 10.56 2 16 C1.34 16 0.68 16 0 16 C0 16.66 0 17.32 0 18 C-0.66 18 -1.32 18 -2 18 C-2 15.36 -2 12.72 -2 10 C-1.34 10 -0.68 10 0 10 C0 6.7 0 3.4 0 0 Z " fill="#A88755" transform="translate(173,148)"/>
<path d="M0 0 C1.32 0 2.64 0 4 0 C4 0.66 4 1.32 4 2 C3.34 2 2.68 2 2 2 C2 2.66 2 3.32 2 4 C1.34 4 0.68 4 0 4 C0 4.66 0 5.32 0 6 C-0.66 6 -1.32 6 -2 6 C-2 6.66 -2 7.32 -2 8 C-2.66 8 -3.32 8 -4 8 C-4 8.66 -4 9.32 -4 10 C-4.66 10 -5.32 10 -6 10 C-6 10.66 -6 11.32 -6 12 C-7.32 12 -8.64 12 -10 12 C-10 11.34 -10 10.68 -10 10 C-9.34 10 -8.68 10 -8 10 C-8 9.34 -8 8.68 -8 8 C-7.34 8 -6.68 8 -6 8 C-6 7.34 -6 6.68 -6 6 C-5.34 6 -4.68 6 -4 6 C-4 5.34 -4 4.68 -4 4 C-3.34 4 -2.68 4 -2 4 C-2 3.34 -2 2.68 -2 2 C-1.34 2 -0.68 2 0 2 C0 1.34 0 0.68 0 0 Z " fill="#B19158" transform="translate(61,68)"/>
<path d="M0 0 C0.66 0 1.32 0 2 0 C2 3.3 2 6.6 2 10 C1.34 10 0.68 10 0 10 C0 11.98 0 13.96 0 16 C-0.66 16 -1.32 16 -2 16 C-2 12.04 -2 8.08 -2 4 C-1.34 4 -0.68 4 0 4 C0 2.68 0 1.36 0 0 Z " fill="#A68453" transform="translate(199,156)"/>
<path d="M0 0 C0.66 0 1.32 0 2 0 C2 2.64 2 5.28 2 8 C1.34 8 0.68 8 0 8 C0 9.32 0 10.64 0 12 C-1.32 12 -2.64 12 -4 12 C-4 10.68 -4 9.36 -4 8 C-3.34 8 -2.68 8 -2 8 C-2 6.68 -2 5.36 -2 4 C-1.34 4 -0.68 4 0 4 C0 2.68 0 1.36 0 0 Z " fill="#C2914F" transform="translate(169,166)"/>
<path d="M0 0 C1.32 0 2.64 0 4 0 C4 1.98 4 3.96 4 6 C3.34 6 2.68 6 2 6 C2 7.32 2 8.64 2 10 C1.34 10 0.68 10 0 10 C0 8.02 0 6.04 0 4 C-1.32 4 -2.64 4 -4 4 C-4 3.34 -4 2.68 -4 2 C-2.68 2 -1.36 2 0 2 C0 1.34 0 0.68 0 0 Z " fill="#C89145" transform="translate(95,116)"/>
<path d="M0 0 C1.98 0 3.96 0 6 0 C6 0.66 6 1.32 6 2 C5.34 2 4.68 2 4 2 C4 3.32 4 4.64 4 6 C3.34 6 2.68 6 2 6 C2 7.32 2 8.64 2 10 C1.34 10 0.68 10 0 10 C0 6.7 0 3.4 0 0 Z " fill="#B28B52" transform="translate(91,248)"/>
<path d="M0 0 C0.66 0 1.32 0 2 0 C2 1.32 2 2.64 2 4 C1.34 4 0.68 4 0 4 C0 5.32 0 6.64 0 8 C-0.66 8 -1.32 8 -2 8 C-2 8.66 -2 9.32 -2 10 C-2.66 10 -3.32 10 -4 10 C-4 10.66 -4 11.32 -4 12 C-4.66 12 -5.32 12 -6 12 C-6 10.68 -6 9.36 -6 8 C-5.34 8 -4.68 8 -4 8 C-4 7.34 -4 6.68 -4 6 C-3.34 6 -2.68 6 -2 6 C-2 4.68 -2 3.36 -2 2 C-1.34 2 -0.68 2 0 2 C0 1.34 0 0.68 0 0 Z " fill="#987F53" transform="translate(135,204)"/>
<path d="M0 0 C1.32 0 2.64 0 4 0 C4 1.32 4 2.64 4 4 C5.32 4 6.64 4 8 4 C8 5.98 8 7.96 8 10 C7.34 10 6.68 10 6 10 C6 9.34 6 8.68 6 8 C5.34 8 4.68 8 4 8 C4 7.34 4 6.68 4 6 C3.34 6 2.68 6 2 6 C2 4.68 2 3.36 2 2 C1.34 2 0.68 2 0 2 C0 1.34 0 0.68 0 0 Z " fill="#B99153" transform="translate(37,190)"/>
<path d="M0 0 C3.3 0 6.6 0 10 0 C10 0.66 10 1.32 10 2 C8.68 2 7.36 2 6 2 C6 2.66 6 3.32 6 4 C5.34 4 4.68 4 4 4 C4 4.66 4 5.32 4 6 C3.34 6 2.68 6 2 6 C2 5.34 2 4.68 2 4 C1.34 4 0.68 4 0 4 C0 2.68 0 1.36 0 0 Z " fill="#C2944A" transform="translate(133,166)"/>
<path d="M0 0 C0.66 0 1.32 0 2 0 C2 1.32 2 2.64 2 4 C2.66 4 3.32 4 4 4 C4 5.98 4 7.96 4 10 C3.34 10 2.68 10 2 10 C2 10.66 2 11.32 2 12 C1.34 12 0.68 12 0 12 C0 8.04 0 4.08 0 0 Z " fill="#A88856" transform="translate(99,108)"/>
<path d="M0 0 C1.98 0 3.96 0 6 0 C6 1.32 6 2.64 6 4 C6.66 4 7.32 4 8 4 C8 5.32 8 6.64 8 8 C7.34 8 6.68 8 6 8 C6 7.34 6 6.68 6 6 C5.34 6 4.68 6 4 6 C4 5.34 4 4.68 4 4 C2.68 4 1.36 4 0 4 C0 2.68 0 1.36 0 0 Z " fill="#B68C55" transform="translate(135,110)"/>
<path d="M0 0 C0.66 0 1.32 0 2 0 C2.21278058 4.46839215 1.59138085 7.82262526 0 12 C-0.66 12 -1.32 12 -2 12 C-2 8.7 -2 5.4 -2 2 C-1.34 2 -0.68 2 0 2 C0 1.34 0 0.68 0 0 Z " fill="#BA9355" transform="translate(77,122)"/>
<path d="M0 0 C2.64 0 5.28 0 8 0 C8 0.66 8 1.32 8 2 C6.68 2 5.36 2 4 2 C4 2.66 4 3.32 4 4 C1.36 4 -1.28 4 -4 4 C-4 3.34 -4 2.68 -4 2 C-2.68 2 -1.36 2 0 2 C0 1.34 0 0.68 0 0 Z " fill="#AE8D58" transform="translate(67,270)"/>
<path d="M0 0 C1.32 0 2.64 0 4 0 C4 1.32 4 2.64 4 4 C4.66 4 5.32 4 6 4 C6 6.64 6 9.28 6 12 C5.34 12 4.68 12 4 12 C4 10.02 4 8.04 4 6 C3.34 6 2.68 6 2 6 C2 4.68 2 3.36 2 2 C1.34 2 0.68 2 0 2 C0 1.34 0 0.68 0 0 Z " fill="#B28B55" transform="translate(129,124)"/>
<path d="M0 0 C2.64 0 5.28 0 8 0 C8 0.66 8 1.32 8 2 C6.02 2 4.04 2 2 2 C2 2.66 2 3.32 2 4 C0.68 4 -0.64 4 -2 4 C-2 4.66 -2 5.32 -2 6 C-2.66 6 -3.32 6 -4 6 C-4 4.68 -4 3.36 -4 2 C-2.68 2 -1.36 2 0 2 C0 1.34 0 0.68 0 0 Z " fill="#AD8B57" transform="translate(85,84)"/>
<path d="M0 0 C0.66 0 1.32 0 2 0 C2 0.66 2 1.32 2 2 C2.66 2 3.32 2 4 2 C4 2.66 4 3.32 4 4 C4.66 4 5.32 4 6 4 C6 4.66 6 5.32 6 6 C6.66 6 7.32 6 8 6 C8 6.66 8 7.32 8 8 C6.02 8 4.04 8 2 8 C2 6.68 2 5.36 2 4 C1.34 4 0.68 4 0 4 C0 2.68 0 1.36 0 0 Z " fill="#B58C55" transform="translate(165,70)"/>
<path d="M0 0 C3.3 0 6.6 0 10 0 C10 0.66 10 1.32 10 2 C9.34 2 8.68 2 8 2 C8 2.66 8 3.32 8 4 C6.68 4 5.36 4 4 4 C4 3.34 4 2.68 4 2 C2.68 2 1.36 2 0 2 C0 1.34 0 0.68 0 0 Z " fill="#C18F4C" transform="translate(71,266)"/>
<path d="M0 0 C0.66 0 1.32 0 2 0 C2 1.32 2 2.64 2 4 C1.34 4 0.68 4 0 4 C0 5.98 0 7.96 0 10 C-1.32 10 -2.64 10 -4 10 C-4 9.34 -4 8.68 -4 8 C-3.34 8 -2.68 8 -2 8 C-2 6.02 -2 4.04 -2 2 C-1.34 2 -0.68 2 0 2 C0 1.34 0 0.68 0 0 Z " fill="#BB8F4E" transform="translate(139,200)"/>
<path d="M0 0 C0.66 0 1.32 0 2 0 C2 1.98 2 3.96 2 6 C2.66 6 3.32 6 4 6 C4 7.98 4 9.96 4 12 C3.34 12 2.68 12 2 12 C2 10.68 2 9.36 2 8 C1.34 8 0.68 8 0 8 C0 5.36 0 2.72 0 0 Z " fill="#B68E55" transform="translate(29,170)"/>
<path d="M0 0 C1.32 0 2.64 0 4 0 C4 1.98 4 3.96 4 6 C3.34 6 2.68 6 2 6 C2 6.66 2 7.32 2 8 C1.34 8 0.68 8 0 8 C0 5.36 0 2.72 0 0 Z " fill="#CE9A49" transform="translate(143,156)"/>
<path d="M0 0 C1.32 0 2.64 0 4 0 C4 3.3 4 6.6 4 10 C3.34 10 2.68 10 2 10 C2 8.02 2 6.04 2 4 C1.34 4 0.68 4 0 4 C0 2.68 0 1.36 0 0 Z " fill="#AF8A58" transform="translate(169,116)"/>
<path d="M0 0 C0.66 0 1.32 0 2 0 C2 0.66 2 1.32 2 2 C2.66 2 3.32 2 4 2 C4 3.32 4 4.64 4 6 C4.66 6 5.32 6 6 6 C6 7.32 6 8.64 6 10 C5.34 10 4.68 10 4 10 C4 9.34 4 8.68 4 8 C3.34 8 2.68 8 2 8 C2 6.68 2 5.36 2 4 C1.34 4 0.68 4 0 4 C0 2.68 0 1.36 0 0 Z " fill="#A78758" transform="translate(187,94)"/>
<path d="M0 0 C0.66 0 1.32 0 2 0 C2 0.66 2 1.32 2 2 C3.32 2 4.64 2 6 2 C6 2.66 6 3.32 6 4 C5.34 4 4.68 4 4 4 C4 4.66 4 5.32 4 6 C3.34 6 2.68 6 2 6 C2 6.66 2 7.32 2 8 C1.34 8 0.68 8 0 8 C0 5.36 0 2.72 0 0 Z " fill="#BE9152" transform="translate(71,90)"/>
<path d="M0 0 C0.66 0 1.32 0 2 0 C2 1.98 2 3.96 2 6 C2.66 6 3.32 6 4 6 C4 7.32 4 8.64 4 10 C2.68 9.67 1.36 9.34 0 9 C0 6.03 0 3.06 0 0 Z " fill="#B08B58" transform="translate(51,154)"/>
<path d="M0 0 C2.64 0 5.28 0 8 0 C8 1.32 8 2.64 8 4 C6.68 4 5.36 4 4 4 C4 3.34 4 2.68 4 2 C2.68 2 1.36 2 0 2 C0 1.34 0 0.68 0 0 Z " fill="#A08252" transform="translate(145,268)"/>
<path d="M0 0 C0.66 0 1.32 0 2 0 C2 0.66 2 1.32 2 2 C2.66 2 3.32 2 4 2 C4 2.66 4 3.32 4 4 C5.32 4 6.64 4 8 4 C8 4.66 8 5.32 8 6 C6.02 6 4.04 6 2 6 C2 5.34 2 4.68 2 4 C1.34 4 0.68 4 0 4 C0 2.68 0 1.36 0 0 Z " fill="#B49153" transform="translate(155,244)"/>
<path d="M0 0 C1.32 0 2.64 0 4 0 C4 0.66 4 1.32 4 2 C3.34 2 2.68 2 2 2 C2 2.66 2 3.32 2 4 C0.68 4 -0.64 4 -2 4 C-2 4.66 -2 5.32 -2 6 C-2.66 6 -3.32 6 -4 6 C-4 4.68 -4 3.36 -4 2 C-2.68 2 -1.36 2 0 2 C0 1.34 0 0.68 0 0 Z " fill="#AB8B55" transform="translate(65,246)"/>
<path d="M0 0 C0.66 0 1.32 0 2 0 C2 2.64 2 5.28 2 8 C1.34 8 0.68 8 0 8 C0 8.66 0 9.32 0 10 C-0.66 10 -1.32 10 -2 10 C-2 8.68 -2 7.36 -2 6 C-1.34 6 -0.68 6 0 6 C0 4.02 0 2.04 0 0 Z " fill="#A98A55" transform="translate(71,236)"/>
<path d="M0 0 C0.66 0 1.32 0 2 0 C2 1.32 2 2.64 2 4 C2.66 4 3.32 4 4 4 C4 5.32 4 6.64 4 8 C2.68 8 1.36 8 0 8 C0 5.36 0 2.72 0 0 Z " fill="#B28B50" transform="translate(91,208)"/>
<path d="M0 0 C1.32 0 2.64 0 4 0 C4 0.66 4 1.32 4 2 C5.32 2 6.64 2 8 2 C8 2.66 8 3.32 8 4 C7.34 4 6.68 4 6 4 C6 4.66 6 5.32 6 6 C5.34 6 4.68 6 4 6 C4 5.34 4 4.68 4 4 C3.34 4 2.68 4 2 4 C2 3.34 2 2.68 2 2 C1.34 2 0.68 2 0 2 C0 1.34 0 0.68 0 0 Z " fill="#B89251" transform="translate(49,204)"/>
<path d="M0 0 C2.64 0 5.28 0 8 0 C8 1.32 8 2.64 8 4 C6.68 4 5.36 4 4 4 C4 3.34 4 2.68 4 2 C2.68 2 1.36 2 0 2 C0 1.34 0 0.68 0 0 Z " fill="#B69056" transform="translate(91,174)"/>
<path d="M0 0 C0.66 0 1.32 0 2 0 C2 1.32 2 2.64 2 4 C2.66 4 3.32 4 4 4 C4 5.32 4 6.64 4 8 C2.68 8 1.36 8 0 8 C0 5.36 0 2.72 0 0 Z " fill="#B99153" transform="translate(55,166)"/>
<path d="M0 0 C1.32 0 2.64 0 4 0 C4 2.64 4 5.28 4 8 C3.34 8 2.68 8 2 8 C2 6.68 2 5.36 2 4 C1.34 4 0.68 4 0 4 C0 2.68 0 1.36 0 0 Z " fill="#AD8B53" transform="translate(25,162)"/>
<path d="M0 0 C1.98 0 3.96 0 6 0 C6 1.98 6 3.96 6 6 C5.34 6 4.68 6 4 6 C4 5.34 4 4.68 4 4 C3.34 4 2.68 4 2 4 C2 3.34 2 2.68 2 2 C1.34 2 0.68 2 0 2 C0 1.34 0 0.68 0 0 Z " fill="#AC8B56" transform="translate(77,160)"/>
<path d="M0 0 C1.32 0 2.64 0 4 0 C4 0.66 4 1.32 4 2 C3.34 2 2.68 2 2 2 C2 2.66 2 3.32 2 4 C0.68 4 -0.64 4 -2 4 C-2 4.66 -2 5.32 -2 6 C-2.66 6 -3.32 6 -4 6 C-4 4.68 -4 3.36 -4 2 C-2.68 2 -1.36 2 0 2 C0 1.34 0 0.68 0 0 Z " fill="#AE8955" transform="translate(125,158)"/>
<path d="M0 0 C0.66 0 1.32 0 2 0 C2 1.98 2 3.96 2 6 C1.34 6 0.68 6 0 6 C0 6.66 0 7.32 0 8 C-1.32 8 -2.64 8 -4 8 C-4 7.34 -4 6.68 -4 6 C-3.34 6 -2.68 6 -2 6 C-2 5.34 -2 4.68 -2 4 C-1.34 4 -0.68 4 0 4 C0 2.68 0 1.36 0 0 Z " fill="#C29C53" transform="translate(133,150)"/>
<path d="M0 0 C0.66 0 1.32 0 2 0 C2 2.64 2 5.28 2 8 C1.34 8 0.68 8 0 8 C0 8.66 0 9.32 0 10 C-0.66 10 -1.32 10 -2 10 C-2 8.68 -2 7.36 -2 6 C-1.34 6 -0.68 6 0 6 C0 4.02 0 2.04 0 0 Z " fill="#A88857" transform="translate(27,114)"/>
<path d="M0 0 C0.66 0 1.32 0 2 0 C2 2.64 2 5.28 2 8 C0.68 8 -0.64 8 -2 8 C-2 6.68 -2 5.36 -2 4 C-1.34 4 -0.68 4 0 4 C0 2.68 0 1.36 0 0 Z " fill="#AA8955" transform="translate(31,104)"/>
<path d="M0 0 C0.66 0 1.32 0 2 0 C2 2.64 2 5.28 2 8 C0.68 8 -0.64 8 -2 8 C-2 6.68 -2 5.36 -2 4 C-1.34 4 -0.68 4 0 4 C0 2.68 0 1.36 0 0 Z " fill="#AB8951" transform="translate(35,96)"/>
<path d="M0 0 C0.66 0 1.32 0 2 0 C2 1.32 2 2.64 2 4 C1.34 4 0.68 4 0 4 C0 5.32 0 6.64 0 8 C-1.32 8 -2.64 8 -4 8 C-4 7.34 -4 6.68 -4 6 C-3.34 6 -2.68 6 -2 6 C-2 4.68 -2 3.36 -2 2 C-1.34 2 -0.68 2 0 2 C0 1.34 0 0.68 0 0 Z " fill="#B28B55" transform="translate(41,88)"/>
<path d="M0 0 C1.32 0 2.64 0 4 0 C4 1.98 4 3.96 4 6 C2.68 6 1.36 6 0 6 C0 4.02 0 2.04 0 0 Z " fill="#C3934D" transform="translate(183,90)"/>
<path d="M0 0 C2.64 0 5.28 0 8 0 C8 1.32 8 2.64 8 4 C6.68 4 5.36 4 4 4 C4 3.34 4 2.68 4 2 C2.68 2 1.36 2 0 2 C0 1.34 0 0.68 0 0 Z " fill="#B79054" transform="translate(135,84)"/>
<path d="M0 0 C1.32 0 2.64 0 4 0 C4 0.66 4 1.32 4 2 C5.32 2 6.64 2 8 2 C8 2.66 8 3.32 8 4 C5.36 4 2.72 4 0 4 C0 2.68 0 1.36 0 0 Z " fill="#AE8B57" transform="translate(141,58)"/>
<path d="M0 0 C1.32 0 2.64 0 4 0 C4 2.64 4 5.28 4 8 C3.34 8 2.68 8 2 8 C2 6.02 2 4.04 2 2 C1.34 2 0.68 2 0 2 C0 1.34 0 0.68 0 0 Z " fill="#A98655" transform="translate(129,248)"/>
<path d="M0 0 C0.66 0 1.32 0 2 0 C2 1.32 2 2.64 2 4 C1.34 4 0.68 4 0 4 C0 4.66 0 5.32 0 6 C-1.32 6 -2.64 6 -4 6 C-4 5.34 -4 4.68 -4 4 C-3.34 4 -2.68 4 -2 4 C-2 3.34 -2 2.68 -2 2 C-1.34 2 -0.68 2 0 2 C0 1.34 0 0.68 0 0 Z " fill="#C39659" transform="translate(151,190)"/>
<path d="M0 0 C0.66 0 1.32 0 2 0 C2 1.32 2 2.64 2 4 C1.34 4 0.68 4 0 4 C0 4.66 0 5.32 0 6 C-1.32 6 -2.64 6 -4 6 C-4 5.34 -4 4.68 -4 4 C-3.34 4 -2.68 4 -2 4 C-2 3.34 -2 2.68 -2 2 C-1.34 2 -0.68 2 0 2 C0 1.34 0 0.68 0 0 Z " fill="#B58E56" transform="translate(157,184)"/>
<path d="M0 0 C0.66 0 1.32 0 2 0 C2 1.32 2 2.64 2 4 C1.34 4 0.68 4 0 4 C0 4.66 0 5.32 0 6 C-1.32 6 -2.64 6 -4 6 C-4 5.34 -4 4.68 -4 4 C-3.34 4 -2.68 4 -2 4 C-2 3.34 -2 2.68 -2 2 C-1.34 2 -0.68 2 0 2 C0 1.34 0 0.68 0 0 Z " fill="#C59B54" transform="translate(163,178)"/>
<path d="M0 0 C1.32 0 2.64 0 4 0 C4 0.66 4 1.32 4 2 C3.34 2 2.68 2 2 2 C2 3.98 2 5.96 2 8 C1.34 8 0.68 8 0 8 C0 5.36 0 2.72 0 0 Z " fill="#9F845A" transform="translate(53,118)"/>
<path d="M0 0 C0.66 0 1.32 0 2 0 C2 1.32 2 2.64 2 4 C1.34 4 0.68 4 0 4 C0 4.66 0 5.32 0 6 C-1.32 6 -2.64 6 -4 6 C-4 5.34 -4 4.68 -4 4 C-3.34 4 -2.68 4 -2 4 C-2 3.34 -2 2.68 -2 2 C-1.34 2 -0.68 2 0 2 C0 1.34 0 0.68 0 0 Z " fill="#BB9458" transform="translate(83,114)"/>
<path d="M0 0 C1.32 0 2.64 0 4 0 C4 1.32 4 2.64 4 4 C2.02 4 0.04 4 -2 4 C-2 3.34 -2 2.68 -2 2 C-1.34 2 -0.68 2 0 2 C0 1.34 0 0.68 0 0 Z " fill="#B69255" transform="translate(71,62)"/>
</svg>
